# xmcd CD database file
# Copyright (C) 1995-1998 Ti Kan
#
# Track frame offsets:
#	150
#	19190
#	35727
#	52065
#	69435
#	87565
#	101150
#	114180
#	130915
#	142660
#	157477
#	180315
#	196015
#
# Disc length: 2872 seconds
#
# Revision: 1
# Processed by: cddbd v1.4b41PL1 Copyright (c) Steve Scherf et al.
# Submitted via: CDex 1.30
#
DISCID=b20b360d
DTITLE=Jackson Delta - Lookin' Back
DYEAR=2001
DGENRE=Blues
TTITLE0=Lookin' Back
TTITLE1=Fool In Love
TTITLE2=Goin' Back To Memphis
TTITLE3=My Mistake
TTITLE4=Honey, What's Wrong With You
TTITLE5=My Ears Keep Hearing Voices
TTITLE6=Little Sister's Gonna Be Alright
TTITLE7=The Feel Of Uncertainty
TTITLE8=Silly Rules
TTITLE9=Unpaid Bills Blues
TTITLE10=I Sleep With A Ghost
TTITLE11=Crazy (About You)
TTITLE12=Worried Life
EXTD=\nYEAR: 2001  ID3G:   0
EXTT0=
EXTT1=
EXTT2=
EXTT3=
EXTT4=
EXTT5=
EXTT6=
EXTT7=
EXTT8=
EXTT9=
EXTT10=
EXTT11=
EXTT12=
PLAYORDER=
